<?xml version="1.0" standalone="no"?>
<!DOCTYPE svg PUBLIC "-//W3C//DTD SVG 20010904//EN"
 "http://www.w3.org/TR/2001/REC-SVG-20010904/DTD/svg10.dtd">
<svg version="1.0" xmlns="http://www.w3.org/2000/svg"
 width="512.000000pt" height="512.000000pt" viewBox="0 0 512.000000 512.000000"
 preserveAspectRatio="xMidYMid meet">
<metadata>
Created by potrace 1.11, written by Peter Selinger 2001-2013
</metadata>
<g transform="translate(0.000000,512.000000) scale(0.100000,-0.100000)"
fill="#000000" stroke="none">
<path d="M2280 5109 c-650 -72 -1247 -372 -1643 -829 -336 -386 -531 -811
-612 -1330 -22 -142 -31 -484 -16 -635 48 -493 215 -935 497 -1315 97 -131
357 -392 486 -488 346 -258 738 -419 1188 -487 152 -23 448 -30 610 -16 385
36 736 141 1042 312 836 469 1317 1341 1285 2329 -9 275 -49 503 -132 755
-118 361 -308 674 -575 949 -397 408 -871 649 -1460 741 -125 20 -541 28 -670
14z m528 -520 c756 -83 1390 -570 1658 -1273 83 -216 123 -425 131 -682 9
-285 -19 -490 -103 -744 -208 -631 -701 -1105 -1341 -1290 -209 -60 -322 -74
-588 -75 -153 0 -269 5 -320 13 -454 76 -832 262 -1133 560 -300 298 -484 656
-567 1107 -22 118 -31 460 -16 591 66 577 342 1070 785 1403 283 213 632 348
1021 394 70 9 384 6 473 -4z"/>
<path d="M2525 4521 c-67 -42 -193 -202 -260 -332 -65 -126 -102 -246 -121
-395 -15 -111 -15 -146 -5 -248 7 -66 23 -162 36 -214 46 -179 183 -416 274
-472 l41 -25 0 -122 0 -123 -109 0 c-60 0 -116 -3 -125 -6 -13 -5 -16 -22 -16
-85 0 -94 -17 -135 -88 -212 -66 -71 -153 -110 -305 -137 -76 -14 -127 -28
-134 -38 -10 -12 -13 -105 -13 -388 0 -363 1 -374 25 -470 14 -55 45 -141 70
-192 123 -256 319 -400 609 -447 116 -19 173 -19 304 1 351 52 581 266 680
633 25 93 26 106 30 468 2 238 0 378 -6 390 -9 15 -30 21 -110 30 -82 9 -113
18 -183 51 -165 80 -219 152 -219 289 0 55 -4 86 -14 95 -9 10 -48 15 -127 17
-63 1 -116 5 -119 8 -3 2 -5 57 -5 121 0 94 3 116 15 120 30 10 144 129 192
201 97 142 126 236 148 480 11 127 0 315 -25 414 -35 139 -111 290 -215 427
-63 83 -161 180 -182 180 -7 0 -26 -9 -43 -19z m-28 -906 c0 -192 -2 -401 -6
-464 l-6 -113 -22 18 c-20 18 -96 183 -122 264 -13 44 -37 166 -51 268 -23
170 42 425 153 601 l42 66 6 -145 c4 -80 6 -302 6 -495z m202 547 c43 -68 113
-236 131 -317 19 -80 28 -291 19 -405 -8 -87 -15 -117 -43 -175 -35 -74 -142
-235 -155 -235 -5 0 -11 8 -13 18 -8 32 4 1194 12 1185 4 -4 26 -37 49 -71z
m-215 -1738 c14 -14 16 -52 14 -302 l-3 -287 -197 -3 -198 -2 0 -241 c0 -261
7 -315 57 -413 54 -107 184 -201 316 -227 85 -17 217 1 293 40 114 57 216 192
243 319 6 31 11 152 11 287 l0 235 -179 0 c-99 0 -186 3 -195 6 -14 5 -16 41
-16 295 0 275 1 289 19 299 27 14 66 13 79 -2 5 -7 13 -32 17 -56 27 -166 214
-333 429 -382 l71 -16 8 -54 c4 -30 3 -168 -2 -306 -12 -281 -27 -356 -97
-497 -87 -172 -199 -262 -394 -318 -103 -30 -311 -27 -425 6 -102 30 -142 49
-214 103 -89 67 -167 186 -210 323 -41 127 -51 228 -51 495 l0 254 23 0 c39 0
139 29 207 61 169 78 257 178 290 325 6 27 16 54 22 61 15 18 63 16 82 -3z m6
-1029 c0 -193 -3 -285 -11 -285 -19 0 -128 80 -152 113 -62 82 -97 207 -97
345 0 54 3 102 7 105 3 4 62 7 130 7 l123 0 0 -285z m380 160 c0 -112 -3 -135
-31 -222 -29 -89 -36 -102 -90 -154 -63 -62 -96 -79 -110 -58 -10 16 -12 542
-2 552 3 4 57 7 120 7 l113 0 0 -125z"/>
</g>
</svg>
